{
	"patcher" : 	{
		"fileversion" : 1,
		"appversion" : 		{
			"major" : 8,
			"minor" : 0,
			"revision" : 3,
			"architecture" : "x64",
			"modernui" : 1
		}
,
		"classnamespace" : "box",
		"rect" : [ 38.0, 79.0, 1208.0, 687.0 ],
		"bglocked" : 0,
		"openinpresentation" : 0,
		"default_fontsize" : 12.0,
		"default_fontface" : 0,
		"default_fontname" : "Arial",
		"gridonopen" : 1,
		"gridsize" : [ 15.0, 15.0 ],
		"gridsnaponopen" : 1,
		"objectsnaponopen" : 1,
		"statusbarvisible" : 2,
		"toolbarvisible" : 1,
		"lefttoolbarpinned" : 0,
		"toptoolbarpinned" : 0,
		"righttoolbarpinned" : 0,
		"bottomtoolbarpinned" : 0,
		"toolbars_unpinned_last_save" : 0,
		"tallnewobj" : 0,
		"boxanimatetime" : 200,
		"enablehscroll" : 1,
		"enablevscroll" : 1,
		"devicewidth" : 0.0,
		"description" : "",
		"digest" : "",
		"tags" : "",
		"style" : "",
		"subpatcher_template" : "Default Max 7",
		"boxes" : [ 			{
				"box" : 				{
					"comment" : "",
					"id" : "obj-32",
					"index" : 3,
					"maxclass" : "outlet",
					"numinlets" : 1,
					"numoutlets" : 0,
					"patching_rect" : [ 419.0, 962.0, 30.0, 30.0 ]
				}

			}
, 			{
				"box" : 				{
					"id" : "obj-30",
					"maxclass" : "newobj",
					"numinlets" : 1,
					"numoutlets" : 0,
					"patching_rect" : [ 938.0, 240.0, 32.0, 22.0 ],
					"text" : "print"
				}

			}
, 			{
				"box" : 				{
					"id" : "obj-74",
					"maxclass" : "newobj",
					"numinlets" : 1,
					"numoutlets" : 1,
					"outlettype" : [ "" ],
					"patching_rect" : [ 211.0, 908.0, 60.0, 22.0 ],
					"text" : "dr.lp.b2xy"
				}

			}
, 			{
				"box" : 				{
					"id" : "obj-71",
					"maxclass" : "newobj",
					"numinlets" : 1,
					"numoutlets" : 1,
					"outlettype" : [ "" ],
					"patching_rect" : [ 211.0, 850.0, 58.0, 22.0 ],
					"text" : "dr.lp.m2b"
				}

			}
, 			{
				"box" : 				{
					"id" : "obj-54",
					"maxclass" : "newobj",
					"numinlets" : 2,
					"numoutlets" : 2,
					"outlettype" : [ "", "" ],
					"patching_rect" : [ 211.0, 985.0, 91.5, 22.0 ],
					"text" : "zl.join"
				}

			}
, 			{
				"box" : 				{
					"id" : "obj-52",
					"maxclass" : "message",
					"numinlets" : 2,
					"numoutlets" : 1,
					"outlettype" : [ "" ],
					"patching_rect" : [ 211.25, 1042.0, 106.0, 22.0 ],
					"text" : "setcell2d $1 $2 $3"
				}

			}
, 			{
				"box" : 				{
					"id" : "obj-45",
					"maxclass" : "newobj",
					"numinlets" : 1,
					"numoutlets" : 3,
					"outlettype" : [ "", "", "" ],
					"patching_rect" : [ 211.0, 805.0, 164.0, 22.0 ],
					"text" : "unjoin"
				}

			}
, 			{
				"box" : 				{
					"id" : "obj-31",
					"maxclass" : "message",
					"numinlets" : 2,
					"numoutlets" : 1,
					"outlettype" : [ "" ],
					"patching_rect" : [ 891.0, 143.5, 41.0, 22.0 ],
					"text" : "set $1"
				}

			}
, 			{
				"box" : 				{
					"id" : "obj-9",
					"maxclass" : "newobj",
					"numinlets" : 1,
					"numoutlets" : 0,
					"patching_rect" : [ 211.25, 1083.5, 86.0, 22.0 ],
					"text" : "s lpnonesense"
				}

			}
, 			{
				"box" : 				{
					"id" : "obj-8",
					"maxclass" : "newobj",
					"numinlets" : 2,
					"numoutlets" : 2,
					"outlettype" : [ "bang", "" ],
					"patching_rect" : [ 872.0, 111.0, 38.0, 22.0 ],
					"text" : "sel -1"
				}

			}
, 			{
				"box" : 				{
					"comment" : "dircetion: 0 = up 1 = down 2 = updown ",
					"id" : "obj-7",
					"index" : 5,
					"maxclass" : "inlet",
					"numinlets" : 0,
					"numoutlets" : 1,
					"outlettype" : [ "" ],
					"patching_rect" : [ 607.799987999999985, 310.5, 30.0, 30.0 ]
				}

			}
, 			{
				"box" : 				{
					"id" : "obj-2",
					"maxclass" : "newobj",
					"numinlets" : 1,
					"numoutlets" : 0,
					"patching_rect" : [ 607.799987999999985, 360.5, 63.0, 22.0 ],
					"text" : "s #0-dir"
				}

			}
, 			{
				"box" : 				{
					"id" : "obj-29",
					"maxclass" : "newobj",
					"numinlets" : 0,
					"numoutlets" : 1,
					"outlettype" : [ "" ],
					"patching_rect" : [ 83.0, 63.0, 61.0, 22.0 ],
					"text" : "r #0-dir"
				}

			}
, 			{
				"box" : 				{
					"id" : "obj-28",
					"maxclass" : "newobj",
					"numinlets" : 1,
					"numoutlets" : 0,
					"patching_rect" : [ 800.799987999999985, 228.5, 63.0, 22.0 ],
					"text" : "s #0-dir"
				}

			}
, 			{
				"box" : 				{
					"id" : "obj-27",
					"maxclass" : "newobj",
					"numinlets" : 0,
					"numoutlets" : 1,
					"outlettype" : [ "" ],
					"patching_rect" : [ 83.0, 642.5, 74.0, 22.0 ],
					"text" : "r #0-color"
				}

			}
, 			{
				"box" : 				{
					"id" : "obj-26",
					"maxclass" : "newobj",
					"numinlets" : 1,
					"numoutlets" : 4,
					"outlettype" : [ "", "", "", "" ],
					"patching_rect" : [ 83.0, 674.0, 103.0, 22.0 ],
					"saved_object_attributes" : 					{
						"embed" : 0
					}
,
					"text" : "coll lp_colours.txt"
				}

			}
, 			{
				"box" : 				{
					"id" : "obj-25",
					"maxclass" : "newobj",
					"numinlets" : 1,
					"numoutlets" : 0,
					"patching_rect" : [ 770.59997599999997, 196.5, 76.0, 22.0 ],
					"text" : "s #0-color"
				}

			}
, 			{
				"box" : 				{
					"id" : "obj-22",
					"maxclass" : "newobj",
					"numinlets" : 1,
					"numoutlets" : 0,
					"patching_rect" : [ 516.0, 360.5, 79.0, 22.0 ],
					"text" : "s #0-offset"
				}

			}
, 			{
				"box" : 				{
					"id" : "obj-23",
					"maxclass" : "newobj",
					"numinlets" : 1,
					"numoutlets" : 0,
					"patching_rect" : [ 421.0, 360.5, 75.0, 22.0 ],
					"text" : "s #0-rows"
				}

			}
, 			{
				"box" : 				{
					"id" : "obj-24",
					"maxclass" : "newobj",
					"numinlets" : 1,
					"numoutlets" : 0,
					"patching_rect" : [ 329.0, 360.5, 71.0, 22.0 ],
					"text" : "s #0-cols"
				}

			}
, 			{
				"box" : 				{
					"id" : "obj-21",
					"maxclass" : "newobj",
					"numinlets" : 0,
					"numoutlets" : 1,
					"outlettype" : [ "" ],
					"patching_rect" : [ 101.0, 294.0, 69.0, 22.0 ],
					"text" : "r #0-cols"
				}

			}
, 			{
				"box" : 				{
					"id" : "obj-20",
					"maxclass" : "newobj",
					"numinlets" : 0,
					"numoutlets" : 1,
					"outlettype" : [ "" ],
					"patching_rect" : [ 242.75, 68.0, 69.0, 22.0 ],
					"text" : "r #0-cols"
				}

			}
, 			{
				"box" : 				{
					"id" : "obj-19",
					"maxclass" : "newobj",
					"numinlets" : 0,
					"numoutlets" : 1,
					"outlettype" : [ "" ],
					"patching_rect" : [ 368.75, 68.0, 73.0, 22.0 ],
					"text" : "r #0-rows"
				}

			}
, 			{
				"box" : 				{
					"id" : "obj-18",
					"maxclass" : "newobj",
					"numinlets" : 0,
					"numoutlets" : 1,
					"outlettype" : [ "" ],
					"patching_rect" : [ 112.0, 373.0, 77.0, 22.0 ],
					"text" : "r #0-offset"
				}

			}
, 			{
				"box" : 				{
					"id" : "obj-17",
					"maxclass" : "newobj",
					"numinlets" : 1,
					"numoutlets" : 0,
					"patching_rect" : [ 740.40002400000003, 164.5, 79.0, 22.0 ],
					"text" : "s #0-offset"
				}

			}
, 			{
				"box" : 				{
					"id" : "obj-16",
					"maxclass" : "newobj",
					"numinlets" : 1,
					"numoutlets" : 0,
					"patching_rect" : [ 710.200012000000015, 137.0, 75.0, 22.0 ],
					"text" : "s #0-rows"
				}

			}
, 			{
				"box" : 				{
					"id" : "obj-15",
					"maxclass" : "newobj",
					"numinlets" : 1,
					"numoutlets" : 0,
					"patching_rect" : [ 680.0, 107.0, 71.0, 22.0 ],
					"text" : "s #0-cols"
				}

			}
, 			{
				"box" : 				{
					"id" : "obj-14",
					"maxclass" : "newobj",
					"numinlets" : 1,
					"numoutlets" : 2,
					"outlettype" : [ "int", "int" ],
					"patching_rect" : [ 189.0, 63.0, 33.0, 22.0 ],
					"text" : "t 0 i"
				}

			}
, 			{
				"box" : 				{
					"id" : "obj-13",
					"maxclass" : "newobj",
					"numinlets" : 2,
					"numoutlets" : 1,
					"outlettype" : [ "int" ],
					"patching_rect" : [ 189.0, 35.0, 29.5, 22.0 ],
					"text" : "- 1"
				}

			}
, 			{
				"box" : 				{
					"id" : "obj-12",
					"maxclass" : "newobj",
					"numinlets" : 0,
					"numoutlets" : 1,
					"outlettype" : [ "" ],
					"patching_rect" : [ 189.0, 5.0, 69.0, 22.0 ],
					"text" : "r #0-size"
				}

			}
, 			{
				"box" : 				{
					"id" : "obj-11",
					"maxclass" : "newobj",
					"numinlets" : 1,
					"numoutlets" : 0,
					"patching_rect" : [ 242.75, 137.0, 71.0, 22.0 ],
					"text" : "s #0-size"
				}

			}
, 			{
				"box" : 				{
					"id" : "obj-10",
					"maxclass" : "newobj",
					"numinlets" : 2,
					"numoutlets" : 1,
					"outlettype" : [ "" ],
					"patcher" : 					{
						"fileversion" : 1,
						"appversion" : 						{
							"major" : 8,
							"minor" : 0,
							"revision" : 3,
							"architecture" : "x64",
							"modernui" : 1
						}
,
						"classnamespace" : "box",
						"rect" : [ 63.0, 104.0, 148.0, 304.0 ],
						"bglocked" : 0,
						"openinpresentation" : 0,
						"default_fontsize" : 12.0,
						"default_fontface" : 0,
						"default_fontname" : "Arial",
						"gridonopen" : 1,
						"gridsize" : [ 15.0, 15.0 ],
						"gridsnaponopen" : 1,
						"objectsnaponopen" : 1,
						"statusbarvisible" : 2,
						"toolbarvisible" : 1,
						"lefttoolbarpinned" : 0,
						"toptoolbarpinned" : 0,
						"righttoolbarpinned" : 0,
						"bottomtoolbarpinned" : 0,
						"toolbars_unpinned_last_save" : 0,
						"tallnewobj" : 0,
						"boxanimatetime" : 200,
						"enablehscroll" : 1,
						"enablevscroll" : 1,
						"devicewidth" : 0.0,
						"description" : "",
						"digest" : "",
						"tags" : "",
						"style" : "",
						"subpatcher_template" : "Default Max 7",
						"boxes" : [ 							{
								"box" : 								{
									"id" : "obj-263",
									"maxclass" : "number",
									"numinlets" : 1,
									"numoutlets" : 2,
									"outlettype" : [ "", "bang" ],
									"parameter_enable" : 0,
									"patching_rect" : [ 13.0, 211.0, 50.0, 22.0 ]
								}

							}
, 							{
								"box" : 								{
									"id" : "obj-253",
									"maxclass" : "number",
									"numinlets" : 1,
									"numoutlets" : 2,
									"outlettype" : [ "", "bang" ],
									"parameter_enable" : 0,
									"patching_rect" : [ 67.0, 144.0, 50.0, 22.0 ]
								}

							}
, 							{
								"box" : 								{
									"id" : "obj-251",
									"maxclass" : "newobj",
									"numinlets" : 2,
									"numoutlets" : 1,
									"outlettype" : [ "int" ],
									"patching_rect" : [ 13.0, 179.0, 73.0, 22.0 ],
									"text" : "+ 1"
								}

							}
, 							{
								"box" : 								{
									"id" : "obj-250",
									"maxclass" : "newobj",
									"numinlets" : 2,
									"numoutlets" : 1,
									"outlettype" : [ "int" ],
									"patching_rect" : [ 67.0, 106.0, 29.5, 22.0 ],
									"text" : "* 8"
								}

							}
, 							{
								"box" : 								{
									"id" : "obj-248",
									"maxclass" : "newobj",
									"numinlets" : 2,
									"numoutlets" : 1,
									"outlettype" : [ "int" ],
									"patching_rect" : [ 67.0, 73.0, 63.0, 22.0 ],
									"text" : "/ 4"
								}

							}
, 							{
								"box" : 								{
									"id" : "obj-249",
									"maxclass" : "newobj",
									"numinlets" : 2,
									"numoutlets" : 1,
									"outlettype" : [ "int" ],
									"patching_rect" : [ 13.0, 73.0, 31.0, 22.0 ],
									"text" : "% 4"
								}

							}
, 							{
								"box" : 								{
									"comment" : "",
									"id" : "obj-7",
									"index" : 1,
									"maxclass" : "inlet",
									"numinlets" : 0,
									"numoutlets" : 1,
									"outlettype" : [ "int" ],
									"patching_rect" : [ 13.0, 13.0, 30.0, 30.0 ]
								}

							}
, 							{
								"box" : 								{
									"comment" : "",
									"id" : "obj-8",
									"index" : 2,
									"maxclass" : "inlet",
									"numinlets" : 0,
									"numoutlets" : 1,
									"outlettype" : [ "" ],
									"patching_rect" : [ 111.0, 13.0, 30.0, 30.0 ]
								}

							}
, 							{
								"box" : 								{
									"comment" : "",
									"id" : "obj-9",
									"index" : 1,
									"maxclass" : "outlet",
									"numinlets" : 1,
									"numoutlets" : 0,
									"patching_rect" : [ 13.0, 258.0, 30.0, 30.0 ]
								}

							}
 ],
						"lines" : [ 							{
								"patchline" : 								{
									"destination" : [ "obj-250", 0 ],
									"source" : [ "obj-248", 0 ]
								}

							}
, 							{
								"patchline" : 								{
									"destination" : [ "obj-251", 0 ],
									"source" : [ "obj-249", 0 ]
								}

							}
, 							{
								"patchline" : 								{
									"destination" : [ "obj-253", 0 ],
									"source" : [ "obj-250", 0 ]
								}

							}
, 							{
								"patchline" : 								{
									"destination" : [ "obj-263", 0 ],
									"source" : [ "obj-251", 0 ]
								}

							}
, 							{
								"patchline" : 								{
									"destination" : [ "obj-251", 1 ],
									"source" : [ "obj-253", 0 ]
								}

							}
, 							{
								"patchline" : 								{
									"destination" : [ "obj-9", 0 ],
									"source" : [ "obj-263", 0 ]
								}

							}
, 							{
								"patchline" : 								{
									"destination" : [ "obj-248", 0 ],
									"order" : 0,
									"source" : [ "obj-7", 0 ]
								}

							}
, 							{
								"patchline" : 								{
									"destination" : [ "obj-249", 0 ],
									"order" : 1,
									"source" : [ "obj-7", 0 ]
								}

							}
, 							{
								"patchline" : 								{
									"destination" : [ "obj-248", 1 ],
									"order" : 0,
									"source" : [ "obj-8", 0 ]
								}

							}
, 							{
								"patchline" : 								{
									"destination" : [ "obj-249", 1 ],
									"order" : 1,
									"source" : [ "obj-8", 0 ]
								}

							}
 ]
					}
,
					"patching_rect" : [ 43.0, 329.0, 77.0, 22.0 ],
					"saved_object_attributes" : 					{
						"description" : "",
						"digest" : "",
						"globalpatchername" : "",
						"tags" : ""
					}
,
					"text" : "p grid_count"
				}

			}
, 			{
				"box" : 				{
					"comment" : "offset",
					"id" : "obj-6",
					"index" : 4,
					"maxclass" : "inlet",
					"numinlets" : 0,
					"numoutlets" : 1,
					"outlettype" : [ "" ],
					"patching_rect" : [ 516.0, 310.5, 30.0, 30.0 ]
				}

			}
, 			{
				"box" : 				{
					"comment" : "rows",
					"id" : "obj-5",
					"index" : 3,
					"maxclass" : "inlet",
					"numinlets" : 0,
					"numoutlets" : 1,
					"outlettype" : [ "" ],
					"patching_rect" : [ 421.0, 310.5, 30.0, 30.0 ]
				}

			}
, 			{
				"box" : 				{
					"comment" : "cols",
					"id" : "obj-4",
					"index" : 2,
					"maxclass" : "inlet",
					"numinlets" : 0,
					"numoutlets" : 1,
					"outlettype" : [ "" ],
					"patching_rect" : [ 329.0, 310.5, 30.0, 30.0 ]
				}

			}
, 			{
				"box" : 				{
					"id" : "obj-3",
					"maxclass" : "newobj",
					"numinlets" : 2,
					"numoutlets" : 1,
					"outlettype" : [ "int" ],
					"patching_rect" : [ 101.0, 214.5, 29.5, 22.0 ],
					"text" : "+ 1"
				}

			}
, 			{
				"box" : 				{
					"id" : "obj-1",
					"maxclass" : "newobj",
					"numinlets" : 2,
					"numoutlets" : 1,
					"outlettype" : [ "int" ],
					"patching_rect" : [ 101.0, 189.0, 31.0, 22.0 ],
					"text" : "% 0"
				}

			}
, 			{
				"box" : 				{
					"id" : "obj-308",
					"maxclass" : "newobj",
					"numinlets" : 2,
					"numoutlets" : 1,
					"outlettype" : [ "int" ],
					"patcher" : 					{
						"fileversion" : 1,
						"appversion" : 						{
							"major" : 8,
							"minor" : 0,
							"revision" : 3,
							"architecture" : "x64",
							"modernui" : 1
						}
,
						"classnamespace" : "box",
						"rect" : [ 581.0, 98.0, 190.0, 208.0 ],
						"bglocked" : 0,
						"openinpresentation" : 0,
						"default_fontsize" : 12.0,
						"default_fontface" : 0,
						"default_fontname" : "Arial",
						"gridonopen" : 1,
						"gridsize" : [ 15.0, 15.0 ],
						"gridsnaponopen" : 1,
						"objectsnaponopen" : 1,
						"statusbarvisible" : 2,
						"toolbarvisible" : 1,
						"lefttoolbarpinned" : 0,
						"toptoolbarpinned" : 0,
						"righttoolbarpinned" : 0,
						"bottomtoolbarpinned" : 0,
						"toolbars_unpinned_last_save" : 0,
						"tallnewobj" : 0,
						"boxanimatetime" : 200,
						"enablehscroll" : 1,
						"enablevscroll" : 1,
						"devicewidth" : 0.0,
						"description" : "",
						"digest" : "",
						"tags" : "",
						"style" : "",
						"subpatcher_template" : "Default Max 7",
						"boxes" : [ 							{
								"box" : 								{
									"id" : "obj-286",
									"maxclass" : "newobj",
									"numinlets" : 1,
									"numoutlets" : 2,
									"outlettype" : [ "bang", "int" ],
									"patching_rect" : [ 112.75, 87.0, 30.0, 22.0 ],
									"text" : "t b i"
								}

							}
, 							{
								"box" : 								{
									"id" : "obj-268",
									"maxclass" : "newobj",
									"numinlets" : 2,
									"numoutlets" : 1,
									"outlettype" : [ "int" ],
									"patching_rect" : [ 16.0, 123.0, 126.75, 22.0 ],
									"text" : "* 1"
								}

							}
, 							{
								"box" : 								{
									"comment" : "",
									"id" : "obj-305",
									"index" : 1,
									"maxclass" : "inlet",
									"numinlets" : 0,
									"numoutlets" : 1,
									"outlettype" : [ "" ],
									"patching_rect" : [ 16.0, 26.0, 30.0, 30.0 ]
								}

							}
, 							{
								"box" : 								{
									"comment" : "",
									"id" : "obj-306",
									"index" : 2,
									"maxclass" : "inlet",
									"numinlets" : 0,
									"numoutlets" : 1,
									"outlettype" : [ "" ],
									"patching_rect" : [ 112.75, 26.0, 30.0, 30.0 ]
								}

							}
, 							{
								"box" : 								{
									"comment" : "",
									"id" : "obj-307",
									"index" : 1,
									"maxclass" : "outlet",
									"numinlets" : 1,
									"numoutlets" : 0,
									"patching_rect" : [ 16.0, 164.0, 30.0, 30.0 ]
								}

							}
 ],
						"lines" : [ 							{
								"patchline" : 								{
									"destination" : [ "obj-307", 0 ],
									"source" : [ "obj-268", 0 ]
								}

							}
, 							{
								"patchline" : 								{
									"destination" : [ "obj-268", 1 ],
									"source" : [ "obj-286", 1 ]
								}

							}
, 							{
								"patchline" : 								{
									"destination" : [ "obj-268", 0 ],
									"source" : [ "obj-286", 0 ]
								}

							}
, 							{
								"patchline" : 								{
									"destination" : [ "obj-268", 0 ],
									"source" : [ "obj-305", 0 ]
								}

							}
, 							{
								"patchline" : 								{
									"destination" : [ "obj-286", 0 ],
									"source" : [ "obj-306", 0 ]
								}

							}
 ]
					}
,
					"patching_rect" : [ 242.75, 103.0, 145.0, 22.0 ],
					"saved_object_attributes" : 					{
						"description" : "",
						"digest" : "",
						"globalpatchername" : "",
						"tags" : ""
					}
,
					"text" : "p total_steps"
				}

			}
, 			{
				"box" : 				{
					"id" : "obj-304",
					"maxclass" : "newobj",
					"numinlets" : 2,
					"numoutlets" : 1,
					"outlettype" : [ "int" ],
					"patching_rect" : [ 43.0, 416.375, 88.0, 22.0 ],
					"text" : "+ 0"
				}

			}
, 			{
				"box" : 				{
					"comment" : "bang",
					"id" : "obj-303",
					"index" : 1,
					"maxclass" : "inlet",
					"numinlets" : 0,
					"numoutlets" : 1,
					"outlettype" : [ "bang" ],
					"patching_rect" : [ 43.0, 9.0, 30.0, 30.0 ]
				}

			}
, 			{
				"box" : 				{
					"id" : "obj-300",
					"maxclass" : "comment",
					"numinlets" : 1,
					"numoutlets" : 0,
					"patching_rect" : [ 271.5, 569.0, 82.0, 20.0 ],
					"text" : "previous step"
				}

			}
, 			{
				"box" : 				{
					"id" : "obj-299",
					"maxclass" : "comment",
					"numinlets" : 1,
					"numoutlets" : 0,
					"patching_rect" : [ 138.0, 189.0, 34.0, 20.0 ],
					"text" : "step"
				}

			}
, 			{
				"box" : 				{
					"id" : "obj-298",
					"maxclass" : "newobj",
					"numinlets" : 7,
					"numoutlets" : 7,
					"outlettype" : [ "", "", "", "", "", "", "" ],
					"patching_rect" : [ 680.0, 77.0, 198.0, 22.0 ],
					"text" : "route cols rows offset color dir page"
				}

			}
, 			{
				"box" : 				{
					"id" : "obj-297",
					"maxclass" : "newobj",
					"numinlets" : 1,
					"numoutlets" : 2,
					"outlettype" : [ "", "" ],
					"patching_rect" : [ 680.0, 35.0, 412.0, 22.0 ],
					"text" : "patcherargs @cols 8 @rows 2 @offset 0 @color G3 @direction 0 @page -1"
				}

			}
, 			{
				"box" : 				{
					"comment" : "",
					"id" : "obj-296",
					"index" : 2,
					"maxclass" : "outlet",
					"numinlets" : 1,
					"numoutlets" : 0,
					"patching_rect" : [ 101.0, 250.0, 30.0, 30.0 ]
				}

			}
, 			{
				"box" : 				{
					"comment" : "midi msg for display",
					"id" : "obj-295",
					"index" : 1,
					"maxclass" : "outlet",
					"numinlets" : 1,
					"numoutlets" : 0,
					"patching_rect" : [ 43.0, 776.0, 30.0, 30.0 ]
				}

			}
, 			{
				"box" : 				{
					"id" : "obj-285",
					"maxclass" : "newobj",
					"numinlets" : 5,
					"numoutlets" : 4,
					"outlettype" : [ "int", "", "", "int" ],
					"patching_rect" : [ 43.0, 103.0, 179.0, 22.0 ],
					"text" : "counter"
				}

			}
, 			{
				"box" : 				{
					"id" : "obj-284",
					"maxclass" : "newobj",
					"numinlets" : 2,
					"numoutlets" : 1,
					"outlettype" : [ "int" ],
					"patching_rect" : [ 43.0, 456.75, 38.0, 22.0 ],
					"text" : "% 64"
				}

			}
, 			{
				"box" : 				{
					"id" : "obj-280",
					"maxclass" : "newobj",
					"numinlets" : 2,
					"numoutlets" : 2,
					"outlettype" : [ "", "" ],
					"patching_rect" : [ 211.0, 567.0, 53.0, 22.0 ],
					"text" : "zl.mth 0"
				}

			}
, 			{
				"box" : 				{
					"id" : "obj-275",
					"maxclass" : "newobj",
					"numinlets" : 2,
					"numoutlets" : 2,
					"outlettype" : [ "", "" ],
					"patching_rect" : [ 211.0, 536.0, 69.0, 22.0 ],
					"text" : "zl.stream 2"
				}

			}
, 			{
				"box" : 				{
					"id" : "obj-273",
					"maxclass" : "newobj",
					"numinlets" : 1,
					"numoutlets" : 2,
					"outlettype" : [ "int", "int" ],
					"patching_rect" : [ 43.0, 486.5, 29.5, 22.0 ],
					"text" : "t i i"
				}

			}
, 			{
				"box" : 				{
					"coll_data" : 					{
						"count" : 64,
						"data" : [ 							{
								"key" : 0,
								"value" : [ 0 ]
							}
, 							{
								"key" : 1,
								"value" : [ 1 ]
							}
, 							{
								"key" : 2,
								"value" : [ 2 ]
							}
, 							{
								"key" : 3,
								"value" : [ 3 ]
							}
, 							{
								"key" : 4,
								"value" : [ 4 ]
							}
, 							{
								"key" : 5,
								"value" : [ 5 ]
							}
, 							{
								"key" : 6,
								"value" : [ 6 ]
							}
, 							{
								"key" : 7,
								"value" : [ 7 ]
							}
, 							{
								"key" : 8,
								"value" : [ 16 ]
							}
, 							{
								"key" : 9,
								"value" : [ 17 ]
							}
, 							{
								"key" : 10,
								"value" : [ 18 ]
							}
, 							{
								"key" : 11,
								"value" : [ 19 ]
							}
, 							{
								"key" : 12,
								"value" : [ 20 ]
							}
, 							{
								"key" : 13,
								"value" : [ 21 ]
							}
, 							{
								"key" : 14,
								"value" : [ 22 ]
							}
, 							{
								"key" : 15,
								"value" : [ 23 ]
							}
, 							{
								"key" : 16,
								"value" : [ 32 ]
							}
, 							{
								"key" : 17,
								"value" : [ 33 ]
							}
, 							{
								"key" : 18,
								"value" : [ 34 ]
							}
, 							{
								"key" : 19,
								"value" : [ 35 ]
							}
, 							{
								"key" : 20,
								"value" : [ 36 ]
							}
, 							{
								"key" : 21,
								"value" : [ 37 ]
							}
, 							{
								"key" : 22,
								"value" : [ 38 ]
							}
, 							{
								"key" : 23,
								"value" : [ 39 ]
							}
, 							{
								"key" : 24,
								"value" : [ 48 ]
							}
, 							{
								"key" : 25,
								"value" : [ 49 ]
							}
, 							{
								"key" : 26,
								"value" : [ 50 ]
							}
, 							{
								"key" : 27,
								"value" : [ 51 ]
							}
, 							{
								"key" : 28,
								"value" : [ 52 ]
							}
, 							{
								"key" : 29,
								"value" : [ 53 ]
							}
, 							{
								"key" : 30,
								"value" : [ 54 ]
							}
, 							{
								"key" : 31,
								"value" : [ 55 ]
							}
, 							{
								"key" : 32,
								"value" : [ 64 ]
							}
, 							{
								"key" : 33,
								"value" : [ 65 ]
							}
, 							{
								"key" : 34,
								"value" : [ 66 ]
							}
, 							{
								"key" : 35,
								"value" : [ 67 ]
							}
, 							{
								"key" : 36,
								"value" : [ 68 ]
							}
, 							{
								"key" : 37,
								"value" : [ 69 ]
							}
, 							{
								"key" : 38,
								"value" : [ 70 ]
							}
, 							{
								"key" : 39,
								"value" : [ 71 ]
							}
, 							{
								"key" : 40,
								"value" : [ 80 ]
							}
, 							{
								"key" : 41,
								"value" : [ 81 ]
							}
, 							{
								"key" : 42,
								"value" : [ 82 ]
							}
, 							{
								"key" : 43,
								"value" : [ 83 ]
							}
, 							{
								"key" : 44,
								"value" : [ 84 ]
							}
, 							{
								"key" : 45,
								"value" : [ 85 ]
							}
, 							{
								"key" : 46,
								"value" : [ 86 ]
							}
, 							{
								"key" : 47,
								"value" : [ 87 ]
							}
, 							{
								"key" : 48,
								"value" : [ 96 ]
							}
, 							{
								"key" : 49,
								"value" : [ 97 ]
							}
, 							{
								"key" : 50,
								"value" : [ 98 ]
							}
, 							{
								"key" : 51,
								"value" : [ 99 ]
							}
, 							{
								"key" : 52,
								"value" : [ 100 ]
							}
, 							{
								"key" : 53,
								"value" : [ 101 ]
							}
, 							{
								"key" : 54,
								"value" : [ 102 ]
							}
, 							{
								"key" : 55,
								"value" : [ 103 ]
							}
, 							{
								"key" : 56,
								"value" : [ 112 ]
							}
, 							{
								"key" : 57,
								"value" : [ 113 ]
							}
, 							{
								"key" : 58,
								"value" : [ 114 ]
							}
, 							{
								"key" : 59,
								"value" : [ 115 ]
							}
, 							{
								"key" : 60,
								"value" : [ 116 ]
							}
, 							{
								"key" : 61,
								"value" : [ 117 ]
							}
, 							{
								"key" : 62,
								"value" : [ 118 ]
							}
, 							{
								"key" : 63,
								"value" : [ 119 ]
							}
 ]
					}
,
					"id" : "obj-240",
					"maxclass" : "newobj",
					"numinlets" : 1,
					"numoutlets" : 4,
					"outlettype" : [ "", "", "", "" ],
					"patching_rect" : [ 43.0, 602.5, 157.0, 22.0 ],
					"saved_object_attributes" : 					{
						"embed" : 1
					}
,
					"text" : "coll button_map @embed 1"
				}

			}
, 			{
				"box" : 				{
					"id" : "obj-239",
					"maxclass" : "newobj",
					"numinlets" : 2,
					"numoutlets" : 1,
					"outlettype" : [ "" ],
					"patching_rect" : [ 43.0, 706.5, 59.0, 22.0 ],
					"text" : "pack i 60"
				}

			}
, 			{
				"box" : 				{
					"id" : "obj-238",
					"maxclass" : "newobj",
					"numinlets" : 2,
					"numoutlets" : 1,
					"outlettype" : [ "" ],
					"patching_rect" : [ 211.0, 706.5, 52.0, 22.0 ],
					"text" : "pack i 0"
				}

			}
, 			{
				"box" : 				{
					"coll_data" : 					{
						"count" : 64,
						"data" : [ 							{
								"key" : 0,
								"value" : [ 0 ]
							}
, 							{
								"key" : 1,
								"value" : [ 1 ]
							}
, 							{
								"key" : 2,
								"value" : [ 2 ]
							}
, 							{
								"key" : 3,
								"value" : [ 3 ]
							}
, 							{
								"key" : 4,
								"value" : [ 4 ]
							}
, 							{
								"key" : 5,
								"value" : [ 5 ]
							}
, 							{
								"key" : 6,
								"value" : [ 6 ]
							}
, 							{
								"key" : 7,
								"value" : [ 7 ]
							}
, 							{
								"key" : 8,
								"value" : [ 16 ]
							}
, 							{
								"key" : 9,
								"value" : [ 17 ]
							}
, 							{
								"key" : 10,
								"value" : [ 18 ]
							}
, 							{
								"key" : 11,
								"value" : [ 19 ]
							}
, 							{
								"key" : 12,
								"value" : [ 20 ]
							}
, 							{
								"key" : 13,
								"value" : [ 21 ]
							}
, 							{
								"key" : 14,
								"value" : [ 22 ]
							}
, 							{
								"key" : 15,
								"value" : [ 23 ]
							}
, 							{
								"key" : 16,
								"value" : [ 32 ]
							}
, 							{
								"key" : 17,
								"value" : [ 33 ]
							}
, 							{
								"key" : 18,
								"value" : [ 34 ]
							}
, 							{
								"key" : 19,
								"value" : [ 35 ]
							}
, 							{
								"key" : 20,
								"value" : [ 36 ]
							}
, 							{
								"key" : 21,
								"value" : [ 37 ]
							}
, 							{
								"key" : 22,
								"value" : [ 38 ]
							}
, 							{
								"key" : 23,
								"value" : [ 39 ]
							}
, 							{
								"key" : 24,
								"value" : [ 48 ]
							}
, 							{
								"key" : 25,
								"value" : [ 49 ]
							}
, 							{
								"key" : 26,
								"value" : [ 50 ]
							}
, 							{
								"key" : 27,
								"value" : [ 51 ]
							}
, 							{
								"key" : 28,
								"value" : [ 52 ]
							}
, 							{
								"key" : 29,
								"value" : [ 53 ]
							}
, 							{
								"key" : 30,
								"value" : [ 54 ]
							}
, 							{
								"key" : 31,
								"value" : [ 55 ]
							}
, 							{
								"key" : 32,
								"value" : [ 64 ]
							}
, 							{
								"key" : 33,
								"value" : [ 65 ]
							}
, 							{
								"key" : 34,
								"value" : [ 66 ]
							}
, 							{
								"key" : 35,
								"value" : [ 67 ]
							}
, 							{
								"key" : 36,
								"value" : [ 68 ]
							}
, 							{
								"key" : 37,
								"value" : [ 69 ]
							}
, 							{
								"key" : 38,
								"value" : [ 70 ]
							}
, 							{
								"key" : 39,
								"value" : [ 71 ]
							}
, 							{
								"key" : 40,
								"value" : [ 80 ]
							}
, 							{
								"key" : 41,
								"value" : [ 81 ]
							}
, 							{
								"key" : 42,
								"value" : [ 82 ]
							}
, 							{
								"key" : 43,
								"value" : [ 83 ]
							}
, 							{
								"key" : 44,
								"value" : [ 84 ]
							}
, 							{
								"key" : 45,
								"value" : [ 85 ]
							}
, 							{
								"key" : 46,
								"value" : [ 86 ]
							}
, 							{
								"key" : 47,
								"value" : [ 87 ]
							}
, 							{
								"key" : 48,
								"value" : [ 96 ]
							}
, 							{
								"key" : 49,
								"value" : [ 97 ]
							}
, 							{
								"key" : 50,
								"value" : [ 98 ]
							}
, 							{
								"key" : 51,
								"value" : [ 99 ]
							}
, 							{
								"key" : 52,
								"value" : [ 100 ]
							}
, 							{
								"key" : 53,
								"value" : [ 101 ]
							}
, 							{
								"key" : 54,
								"value" : [ 102 ]
							}
, 							{
								"key" : 55,
								"value" : [ 103 ]
							}
, 							{
								"key" : 56,
								"value" : [ 112 ]
							}
, 							{
								"key" : 57,
								"value" : [ 113 ]
							}
, 							{
								"key" : 58,
								"value" : [ 114 ]
							}
, 							{
								"key" : 59,
								"value" : [ 115 ]
							}
, 							{
								"key" : 60,
								"value" : [ 116 ]
							}
, 							{
								"key" : 61,
								"value" : [ 117 ]
							}
, 							{
								"key" : 62,
								"value" : [ 118 ]
							}
, 							{
								"key" : 63,
								"value" : [ 119 ]
							}
 ]
					}
,
					"id" : "obj-237",
					"maxclass" : "newobj",
					"numinlets" : 1,
					"numoutlets" : 4,
					"outlettype" : [ "", "", "", "" ],
					"patching_rect" : [ 211.0, 602.5, 157.0, 22.0 ],
					"saved_object_attributes" : 					{
						"embed" : 1
					}
,
					"text" : "coll button_map @embed 1"
				}

			}
 ],
		"lines" : [ 			{
				"patchline" : 				{
					"destination" : [ "obj-3", 0 ],
					"source" : [ "obj-1", 0 ]
				}

			}
, 			{
				"patchline" : 				{
					"destination" : [ "obj-304", 0 ],
					"source" : [ "obj-10", 0 ]
				}

			}
, 			{
				"patchline" : 				{
					"destination" : [ "obj-13", 0 ],
					"source" : [ "obj-12", 0 ]
				}

			}
, 			{
				"patchline" : 				{
					"destination" : [ "obj-14", 0 ],
					"source" : [ "obj-13", 0 ]
				}

			}
, 			{
				"patchline" : 				{
					"destination" : [ "obj-285", 4 ],
					"source" : [ "obj-14", 1 ]
				}

			}
, 			{
				"patchline" : 				{
					"destination" : [ "obj-285", 2 ],
					"source" : [ "obj-14", 0 ]
				}

			}
, 			{
				"patchline" : 				{
					"destination" : [ "obj-304", 1 ],
					"source" : [ "obj-18", 0 ]
				}

			}
, 			{
				"patchline" : 				{
					"destination" : [ "obj-308", 1 ],
					"source" : [ "obj-19", 0 ]
				}

			}
, 			{
				"patchline" : 				{
					"destination" : [ "obj-308", 0 ],
					"source" : [ "obj-20", 0 ]
				}

			}
, 			{
				"patchline" : 				{
					"destination" : [ "obj-10", 1 ],
					"source" : [ "obj-21", 0 ]
				}

			}
, 			{
				"patchline" : 				{
					"destination" : [ "obj-238", 0 ],
					"source" : [ "obj-237", 0 ]
				}

			}
, 			{
				"patchline" : 				{
					"destination" : [ "obj-295", 0 ],
					"midpoints" : [ 220.5, 757.0, 52.5, 757.0 ],
					"order" : 1,
					"source" : [ "obj-238", 0 ]
				}

			}
, 			{
				"patchline" : 				{
					"destination" : [ "obj-45", 0 ],
					"midpoints" : [ 220.5, 729.0, 220.5, 729.0 ],
					"order" : 0,
					"source" : [ "obj-238", 0 ]
				}

			}
, 			{
				"patchline" : 				{
					"destination" : [ "obj-295", 0 ],
					"midpoints" : [ 52.5, 746.0, 52.5, 746.0 ],
					"order" : 1,
					"source" : [ "obj-239", 0 ]
				}

			}
, 			{
				"patchline" : 				{
					"destination" : [ "obj-45", 0 ],
					"midpoints" : [ 52.5, 762.0, 220.5, 762.0 ],
					"order" : 0,
					"source" : [ "obj-239", 0 ]
				}

			}
, 			{
				"patchline" : 				{
					"destination" : [ "obj-239", 0 ],
					"source" : [ "obj-240", 0 ]
				}

			}
, 			{
				"patchline" : 				{
					"destination" : [ "obj-239", 1 ],
					"source" : [ "obj-26", 0 ]
				}

			}
, 			{
				"patchline" : 				{
					"destination" : [ "obj-26", 0 ],
					"source" : [ "obj-27", 0 ]
				}

			}
, 			{
				"patchline" : 				{
					"destination" : [ "obj-240", 0 ],
					"source" : [ "obj-273", 0 ]
				}

			}
, 			{
				"patchline" : 				{
					"destination" : [ "obj-275", 0 ],
					"midpoints" : [ 63.0, 521.0, 220.5, 521.0 ],
					"source" : [ "obj-273", 1 ]
				}

			}
, 			{
				"patchline" : 				{
					"destination" : [ "obj-280", 0 ],
					"source" : [ "obj-275", 0 ]
				}

			}
, 			{
				"patchline" : 				{
					"destination" : [ "obj-237", 0 ],
					"source" : [ "obj-280", 0 ]
				}

			}
, 			{
				"patchline" : 				{
					"destination" : [ "obj-273", 0 ],
					"source" : [ "obj-284", 0 ]
				}

			}
, 			{
				"patchline" : 				{
					"destination" : [ "obj-1", 0 ],
					"midpoints" : [ 52.5, 175.0, 110.5, 175.0 ],
					"order" : 0,
					"source" : [ "obj-285", 0 ]
				}

			}
, 			{
				"patchline" : 				{
					"destination" : [ "obj-10", 0 ],
					"order" : 1,
					"source" : [ "obj-285", 0 ]
				}

			}
, 			{
				"patchline" : 				{
					"destination" : [ "obj-285", 1 ],
					"source" : [ "obj-29", 0 ]
				}

			}
, 			{
				"patchline" : 				{
					"destination" : [ "obj-298", 0 ],
					"source" : [ "obj-297", 1 ]
				}

			}
, 			{
				"patchline" : 				{
					"destination" : [ "obj-15", 0 ],
					"source" : [ "obj-298", 0 ]
				}

			}
, 			{
				"patchline" : 				{
					"destination" : [ "obj-16", 0 ],
					"source" : [ "obj-298", 1 ]
				}

			}
, 			{
				"patchline" : 				{
					"destination" : [ "obj-17", 0 ],
					"source" : [ "obj-298", 2 ]
				}

			}
, 			{
				"patchline" : 				{
					"destination" : [ "obj-25", 0 ],
					"source" : [ "obj-298", 3 ]
				}

			}
, 			{
				"patchline" : 				{
					"destination" : [ "obj-28", 0 ],
					"source" : [ "obj-298", 4 ]
				}

			}
, 			{
				"patchline" : 				{
					"destination" : [ "obj-8", 0 ],
					"source" : [ "obj-298", 5 ]
				}

			}
, 			{
				"patchline" : 				{
					"destination" : [ "obj-296", 0 ],
					"source" : [ "obj-3", 0 ]
				}

			}
, 			{
				"patchline" : 				{
					"destination" : [ "obj-285", 0 ],
					"source" : [ "obj-303", 0 ]
				}

			}
, 			{
				"patchline" : 				{
					"destination" : [ "obj-284", 0 ],
					"source" : [ "obj-304", 0 ]
				}

			}
, 			{
				"patchline" : 				{
					"destination" : [ "obj-11", 0 ],
					"source" : [ "obj-308", 0 ]
				}

			}
, 			{
				"patchline" : 				{
					"destination" : [ "obj-30", 0 ],
					"order" : 0,
					"source" : [ "obj-31", 0 ]
				}

			}
, 			{
				"patchline" : 				{
					"destination" : [ "obj-9", 0 ],
					"midpoints" : [ 900.5, 1077.0, 220.75, 1077.0 ],
					"order" : 1,
					"source" : [ "obj-31", 0 ]
				}

			}
, 			{
				"patchline" : 				{
					"destination" : [ "obj-24", 0 ],
					"source" : [ "obj-4", 0 ]
				}

			}
, 			{
				"patchline" : 				{
					"destination" : [ "obj-54", 1 ],
					"source" : [ "obj-45", 1 ]
				}

			}
, 			{
				"patchline" : 				{
					"destination" : [ "obj-71", 0 ],
					"source" : [ "obj-45", 0 ]
				}

			}
, 			{
				"patchline" : 				{
					"destination" : [ "obj-23", 0 ],
					"source" : [ "obj-5", 0 ]
				}

			}
, 			{
				"patchline" : 				{
					"destination" : [ "obj-32", 0 ],
					"order" : 0,
					"source" : [ "obj-52", 0 ]
				}

			}
, 			{
				"patchline" : 				{
					"destination" : [ "obj-9", 0 ],
					"order" : 1,
					"source" : [ "obj-52", 0 ]
				}

			}
, 			{
				"patchline" : 				{
					"destination" : [ "obj-52", 0 ],
					"source" : [ "obj-54", 0 ]
				}

			}
, 			{
				"patchline" : 				{
					"destination" : [ "obj-22", 0 ],
					"source" : [ "obj-6", 0 ]
				}

			}
, 			{
				"patchline" : 				{
					"destination" : [ "obj-2", 0 ],
					"source" : [ "obj-7", 0 ]
				}

			}
, 			{
				"patchline" : 				{
					"destination" : [ "obj-74", 0 ],
					"source" : [ "obj-71", 0 ]
				}

			}
, 			{
				"patchline" : 				{
					"destination" : [ "obj-54", 0 ],
					"source" : [ "obj-74", 0 ]
				}

			}
, 			{
				"patchline" : 				{
					"destination" : [ "obj-31", 0 ],
					"source" : [ "obj-8", 1 ]
				}

			}
 ]
	}

}
