{
	"patcher" : 	{
		"fileversion" : 1,
		"appversion" : 		{
			"major" : 7,
			"minor" : 3,
			"revision" : 4,
			"architecture" : "x86",
			"modernui" : 1
		}
,
		"rect" : [ 38.0, 79.0, 1208.0, 687.0 ],
		"bglocked" : 0,
		"openinpresentation" : 1,
		"default_fontsize" : 12.0,
		"default_fontface" : 0,
		"default_fontname" : "Arial",
		"gridonopen" : 1,
		"gridsize" : [ 15.0, 15.0 ],
		"gridsnaponopen" : 1,
		"objectsnaponopen" : 1,
		"statusbarvisible" : 2,
		"toolbarvisible" : 1,
		"lefttoolbarpinned" : 0,
		"toptoolbarpinned" : 0,
		"righttoolbarpinned" : 0,
		"bottomtoolbarpinned" : 0,
		"toolbars_unpinned_last_save" : 0,
		"tallnewobj" : 0,
		"boxanimatetime" : 200,
		"enablehscroll" : 1,
		"enablevscroll" : 1,
		"devicewidth" : 0.0,
		"description" : "",
		"digest" : "",
		"tags" : "",
		"style" : "",
		"subpatcher_template" : "Default Max 7",
		"boxes" : [ 			{
				"box" : 				{
					"angle" : 270.0,
					"bgcolor" : [ 0.290196, 0.309804, 0.301961, 0.0 ],
					"border" : 2,
					"bordercolor" : [ 0.92549, 0.364706, 0.341176, 1.0 ],
					"id" : "obj-69",
					"maxclass" : "panel",
					"mode" : 0,
					"numinlets" : 1,
					"numoutlets" : 0,
					"patching_rect" : [ 4.0, 46.5, 128.0, 128.0 ],
					"presentation" : 1,
					"presentation_rect" : [ 6.0, 32.25, 273.0, 193.25 ],
					"proportion" : 0.39,
					"style" : ""
				}

			}
, 			{
				"box" : 				{
					"angle" : 270.0,
					"bgcolor" : [ 0.290196, 0.309804, 0.301961, 0.0 ],
					"border" : 2,
					"bordercolor" : [ 0.439216, 0.74902, 0.254902, 1.0 ],
					"id" : "obj-68",
					"maxclass" : "panel",
					"mode" : 0,
					"numinlets" : 1,
					"numoutlets" : 0,
					"patching_rect" : [ 376.0, 358.0, 128.0, 128.0 ],
					"presentation" : 1,
					"presentation_rect" : [ 292.0, 55.5, 139.0, 138.5 ],
					"proportion" : 0.39,
					"style" : ""
				}

			}
, 			{
				"box" : 				{
					"comment" : "accel xyz",
					"id" : "obj-67",
					"index" : 5,
					"maxclass" : "outlet",
					"numinlets" : 1,
					"numoutlets" : 0,
					"patching_rect" : [ 267.0, 802.0, 30.0, 30.0 ],
					"style" : ""
				}

			}
, 			{
				"box" : 				{
					"id" : "obj-66",
					"maxclass" : "newobj",
					"numinlets" : 1,
					"numoutlets" : 1,
					"outlettype" : [ "" ],
					"patching_rect" : [ 354.5, 399.0, 56.0, 22.0 ],
					"style" : "",
					"text" : "deferlow"
				}

			}
, 			{
				"box" : 				{
					"id" : "obj-65",
					"maxclass" : "newobj",
					"numinlets" : 1,
					"numoutlets" : 1,
					"outlettype" : [ "bang" ],
					"patching_rect" : [ 354.5, 367.5, 60.0, 22.0 ],
					"style" : "",
					"text" : "loadbang"
				}

			}
, 			{
				"box" : 				{
					"id" : "obj-64",
					"maxclass" : "newobj",
					"numinlets" : 1,
					"numoutlets" : 4,
					"outlettype" : [ "", "", "", "" ],
					"patching_rect" : [ 474.0, 392.5, 58.0, 22.0 ],
					"restore" : 					{
						"Motion_plus_on/off" : [ 1.0 ],
						"Port" : [ 9000 ],
						"pitch" : [ 0.495896 ],
						"pitch[1]" : [ 0.526138 ],
						"pitch[2]" : [ 0.019388 ],
						"pitch[3]" : [ 0.203031 ],
						"pitch[4]" : [ 0.60118 ],
						"pitch[5]" : [ 0.50103 ],
						"pitch[6]" : [ 0.507924 ]
					}
,
					"style" : "",
					"text" : "autopattr",
					"varname" : "u094009615"
				}

			}
, 			{
				"box" : 				{
					"id" : "obj-63",
					"maxclass" : "message",
					"numinlets" : 2,
					"numoutlets" : 1,
					"outlettype" : [ "" ],
					"patching_rect" : [ 354.5, 431.0, 29.5, 22.0 ],
					"style" : "",
					"text" : "1"
				}

			}
, 			{
				"box" : 				{
					"active" : 					{
						"pitch" : 0,
						"pitch[1]" : 0,
						"pitch[2]" : 0,
						"pitch[3]" : 0,
						"pitch[4]" : 0,
						"pitch[5]" : 0,
						"pitch[6]" : 0
					}
,
					"id" : "obj-61",
					"maxclass" : "newobj",
					"numinlets" : 1,
					"numoutlets" : 1,
					"outlettype" : [ "" ],
					"patching_rect" : [ 354.5, 471.0, 151.0, 22.0 ],
					"saved_object_attributes" : 					{
						"client_rect" : [ 100, 100, 500, 600 ],
						"parameter_enable" : 0,
						"storage_rect" : [ 200, 200, 800, 500 ]
					}
,
					"style" : "",
					"text" : "pattrstorage dr.wii-settings",
					"varname" : "dr.wii-settings"
				}

			}
, 			{
				"box" : 				{
					"id" : "obj-60",
					"linecount" : 2,
					"maxclass" : "comment",
					"numinlets" : 1,
					"numoutlets" : 0,
					"patching_rect" : [ 260.071411, 597.0, 41.0, 33.0 ],
					"presentation" : 1,
					"presentation_rect" : [ 327.0, 28.0, 67.0, 20.0 ],
					"style" : "",
					"text" : "accel xyz"
				}

			}
, 			{
				"box" : 				{
					"id" : "obj-42",
					"maxclass" : "newobj",
					"numinlets" : 2,
					"numoutlets" : 1,
					"outlettype" : [ "int" ],
					"patching_rect" : [ 151.0, 216.0, 29.5, 22.0 ],
					"style" : "",
					"text" : "+ 1"
				}

			}
, 			{
				"box" : 				{
					"activebgcolor" : [ 0.862745, 0.870588, 0.878431, 1.0 ],
					"activebgoncolor" : [ 0.92549, 0.364706, 0.341176, 0.518407 ],
					"focusbordercolor" : [ 0.0, 0.019608, 0.078431, 0.0 ],
					"id" : "obj-31",
					"maxclass" : "live.text",
					"numinlets" : 1,
					"numoutlets" : 2,
					"outlettype" : [ "", "" ],
					"parameter_enable" : 1,
					"patching_rect" : [ 151.0, 186.0, 40.0, 20.0 ],
					"presentation" : 1,
					"presentation_rect" : [ 105.0, 6.5, 40.0, 20.0 ],
					"saved_attribute_attributes" : 					{
						"valueof" : 						{
							"parameter_linknames" : 1,
							"parameter_longname" : "Motion_plus_on/off",
							"parameter_shortname" : "Motion_plus_on/off",
							"parameter_type" : 2,
							"parameter_mmax" : 1.0,
							"parameter_enum" : [ "val1", "val2" ]
						}

					}
,
					"text" : "MP",
					"texton" : "MP",
					"varname" : "Motion_plus_on/off"
				}

			}
, 			{
				"box" : 				{
					"id" : "obj-28",
					"maxclass" : "newobj",
					"numinlets" : 4,
					"numoutlets" : 1,
					"outlettype" : [ "" ],
					"patching_rect" : [ 26.0, 234.0, 74.5, 22.0 ],
					"style" : "",
					"text" : "pack f f f f"
				}

			}
, 			{
				"box" : 				{
					"id" : "obj-26",
					"maxclass" : "newobj",
					"numinlets" : 3,
					"numoutlets" : 1,
					"outlettype" : [ "" ],
					"patching_rect" : [ 26.0, 185.0, 54.0, 22.0 ],
					"style" : "",
					"text" : "switch 2"
				}

			}
, 			{
				"box" : 				{
					"id" : "obj-25",
					"maxclass" : "newobj",
					"numinlets" : 2,
					"numoutlets" : 2,
					"outlettype" : [ "", "" ],
					"patching_rect" : [ 43.5, 131.0, 57.0, 22.0 ],
					"style" : "",
					"text" : "zl.slice 3"
				}

			}
, 			{
				"box" : 				{
					"id" : "obj-24",
					"maxclass" : "newobj",
					"numinlets" : 1,
					"numoutlets" : 4,
					"outlettype" : [ "", "", "", "" ],
					"patching_rect" : [ 303.071411, 694.0, 53.0, 22.0 ],
					"style" : "",
					"text" : "unjoin 3"
				}

			}
, 			{
				"box" : 				{
					"annotation" : "",
					"bgcolor" : [ 1.0, 1.0, 1.0, 0.0 ],
					"fontface" : 1,
					"fontname" : "Arial",
					"fontsize" : 10.0,
					"format" : 6,
					"htricolor" : [ 1.0, 1.0, 0.0, 1.0 ],
					"id" : "obj-21",
					"ignoreclick" : 1,
					"maxclass" : "flonum",
					"numinlets" : 1,
					"numoutlets" : 2,
					"outlettype" : [ "", "bang" ],
					"parameter_enable" : 0,
					"patching_rect" : [ 426.214233, 731.0, 44.0, 20.0 ],
					"presentation" : 1,
					"presentation_rect" : [ 375.5, 148.0, 44.0, 20.0 ],
					"prototypename" : "redtri",
					"style" : "",
					"textcolor" : [ 0.0, 0.0, 0.0, 1.0 ],
					"tricolor" : [ 0.501961, 0.0, 0.0, 0.0 ],
					"varname" : "pitch[4]"
				}

			}
, 			{
				"box" : 				{
					"annotation" : "",
					"bgcolor" : [ 1.0, 1.0, 1.0, 0.0 ],
					"fontface" : 1,
					"fontname" : "Arial",
					"fontsize" : 10.0,
					"format" : 6,
					"htricolor" : [ 1.0, 1.0, 0.0, 1.0 ],
					"id" : "obj-22",
					"ignoreclick" : 1,
					"maxclass" : "flonum",
					"numinlets" : 1,
					"numoutlets" : 2,
					"outlettype" : [ "", "bang" ],
					"parameter_enable" : 0,
					"patching_rect" : [ 364.714294, 731.0, 44.0, 20.0 ],
					"presentation" : 1,
					"presentation_rect" : [ 336.0, 148.0, 44.0, 20.0 ],
					"prototypename" : "redtri",
					"style" : "",
					"textcolor" : [ 0.0, 0.0, 0.0, 1.0 ],
					"tricolor" : [ 0.501961, 0.0, 0.0, 0.0 ],
					"varname" : "pitch[5]"
				}

			}
, 			{
				"box" : 				{
					"annotation" : "",
					"bgcolor" : [ 1.0, 1.0, 1.0, 0.0 ],
					"fontface" : 1,
					"fontname" : "Arial",
					"fontsize" : 10.0,
					"format" : 6,
					"htricolor" : [ 1.0, 1.0, 0.0, 1.0 ],
					"id" : "obj-23",
					"ignoreclick" : 1,
					"maxclass" : "flonum",
					"numinlets" : 1,
					"numoutlets" : 2,
					"outlettype" : [ "", "bang" ],
					"parameter_enable" : 0,
					"patching_rect" : [ 303.214294, 731.0, 44.0, 20.0 ],
					"presentation" : 1,
					"presentation_rect" : [ 292.0, 148.0, 44.0, 20.0 ],
					"prototypename" : "redtri",
					"style" : "",
					"textcolor" : [ 0.0, 0.0, 0.0, 1.0 ],
					"tricolor" : [ 0.501961, 0.0, 0.0, 0.0 ],
					"varname" : "pitch[6]"
				}

			}
, 			{
				"box" : 				{
					"id" : "obj-19",
					"maxclass" : "comment",
					"numinlets" : 1,
					"numoutlets" : 0,
					"patching_rect" : [ 433.142883, 760.0, 32.0, 20.0 ],
					"presentation" : 1,
					"presentation_rect" : [ 391.571411, 166.0, 20.0, 20.0 ],
					"style" : "",
					"text" : "z"
				}

			}
, 			{
				"box" : 				{
					"id" : "obj-18",
					"maxclass" : "comment",
					"numinlets" : 1,
					"numoutlets" : 0,
					"patching_rect" : [ 368.642822, 760.0, 26.0, 20.0 ],
					"presentation" : 1,
					"presentation_rect" : [ 351.5, 166.0, 18.0, 20.0 ],
					"style" : "",
					"text" : "y"
				}

			}
, 			{
				"box" : 				{
					"id" : "obj-13",
					"maxclass" : "comment",
					"numinlets" : 1,
					"numoutlets" : 0,
					"patching_rect" : [ 315.214294, 760.0, 26.0, 20.0 ],
					"presentation" : 1,
					"presentation_rect" : [ 306.5, 166.0, 22.5, 20.0 ],
					"style" : "",
					"text" : "x"
				}

			}
, 			{
				"box" : 				{
					"bgcolor" : [ 0.290196, 0.309804, 0.301961, 0.0 ],
					"candicane2" : [ 0.317647, 0.654902, 0.976471, 1.0 ],
					"candicane3" : [ 0.960784, 0.827451, 0.156863, 1.0 ],
					"candycane" : 13,
					"contdata" : 1,
					"ghostbar" : 49,
					"id" : "obj-8",
					"maxclass" : "multislider",
					"numinlets" : 1,
					"numoutlets" : 2,
					"outlettype" : [ "", "" ],
					"parameter_enable" : 0,
					"patching_rect" : [ 303.071411, 575.0, 157.142883, 103.0 ],
					"presentation" : 1,
					"presentation_rect" : [ 297.0, 55.5, 127.0, 93.5 ],
					"setminmax" : [ 0.0, 1.0 ],
					"size" : 3,
					"slidercolor" : [ 0.701961, 0.415686, 0.886275, 1.0 ],
					"spacing" : 8,
					"style" : ""
				}

			}
, 			{
				"box" : 				{
					"id" : "obj-5",
					"maxclass" : "newobj",
					"numinlets" : 2,
					"numoutlets" : 2,
					"outlettype" : [ "", "" ],
					"patching_rect" : [ 303.071411, 523.0, 121.0, 22.0 ],
					"style" : "",
					"text" : "route /wii/2/accel/xyz"
				}

			}
, 			{
				"box" : 				{
					"comment" : "Port",
					"id" : "obj-57",
					"index" : 1,
					"maxclass" : "inlet",
					"numinlets" : 0,
					"numoutlets" : 1,
					"outlettype" : [ "" ],
					"patching_rect" : [ 161.0, 49.0, 30.0, 30.0 ],
					"style" : ""
				}

			}
, 			{
				"box" : 				{
					"comment" : "Button: Right",
					"id" : "obj-56",
					"index" : 11,
					"maxclass" : "outlet",
					"numinlets" : 1,
					"numoutlets" : 0,
					"patching_rect" : [ 944.142883, 193.0, 30.0, 30.0 ],
					"style" : ""
				}

			}
, 			{
				"box" : 				{
					"comment" : "Button: Left",
					"id" : "obj-55",
					"index" : 10,
					"maxclass" : "outlet",
					"numinlets" : 1,
					"numoutlets" : 0,
					"patching_rect" : [ 786.142883, 193.0, 30.0, 30.0 ],
					"style" : ""
				}

			}
, 			{
				"box" : 				{
					"comment" : "Button: Down",
					"id" : "obj-54",
					"index" : 9,
					"maxclass" : "outlet",
					"numinlets" : 1,
					"numoutlets" : 0,
					"patching_rect" : [ 628.0, 193.0, 30.0, 30.0 ],
					"style" : ""
				}

			}
, 			{
				"box" : 				{
					"comment" : "Button: Up",
					"id" : "obj-53",
					"index" : 8,
					"maxclass" : "outlet",
					"numinlets" : 1,
					"numoutlets" : 0,
					"patching_rect" : [ 555.0, 193.0, 30.0, 30.0 ],
					"style" : ""
				}

			}
, 			{
				"box" : 				{
					"comment" : "Button: B",
					"id" : "obj-52",
					"index" : 7,
					"maxclass" : "outlet",
					"numinlets" : 1,
					"numoutlets" : 0,
					"patching_rect" : [ 488.0, 193.0, 30.0, 30.0 ],
					"style" : ""
				}

			}
, 			{
				"box" : 				{
					"comment" : "Button: A",
					"id" : "obj-51",
					"index" : 6,
					"maxclass" : "outlet",
					"numinlets" : 1,
					"numoutlets" : 0,
					"patching_rect" : [ 415.0, 193.0, 30.0, 30.0 ],
					"style" : ""
				}

			}
, 			{
				"box" : 				{
					"comment" : "Accel",
					"id" : "obj-50",
					"index" : 4,
					"maxclass" : "outlet",
					"numinlets" : 1,
					"numoutlets" : 0,
					"patching_rect" : [ 198.5, 556.0, 30.0, 30.0 ],
					"style" : ""
				}

			}
, 			{
				"box" : 				{
					"comment" : "Yaw",
					"id" : "obj-49",
					"index" : 3,
					"maxclass" : "outlet",
					"numinlets" : 1,
					"numoutlets" : 0,
					"patching_rect" : [ 137.0, 556.0, 30.0, 30.0 ],
					"style" : ""
				}

			}
, 			{
				"box" : 				{
					"comment" : "Roll",
					"id" : "obj-48",
					"index" : 2,
					"maxclass" : "outlet",
					"numinlets" : 1,
					"numoutlets" : 0,
					"patching_rect" : [ 75.5, 556.0, 30.0, 30.0 ],
					"style" : ""
				}

			}
, 			{
				"box" : 				{
					"comment" : "pitch",
					"id" : "obj-47",
					"index" : 1,
					"maxclass" : "outlet",
					"numinlets" : 1,
					"numoutlets" : 0,
					"patching_rect" : [ 14.0, 556.0, 30.0, 30.0 ],
					"style" : ""
				}

			}
, 			{
				"box" : 				{
					"id" : "obj-46",
					"maxclass" : "newobj",
					"numinlets" : 1,
					"numoutlets" : 1,
					"outlettype" : [ "" ],
					"patching_rect" : [ 14.0, 5.0, 92.0, 22.0 ],
					"style" : "",
					"text" : "loadmess 9000"
				}

			}
, 			{
				"box" : 				{
					"id" : "obj-45",
					"maxclass" : "comment",
					"numinlets" : 1,
					"numoutlets" : 0,
					"patching_rect" : [ 87.0, 37.5, 47.0, 20.0 ],
					"presentation" : 1,
					"presentation_rect" : [ 8.0, 5.0, 47.0, 20.0 ],
					"style" : "",
					"text" : "Port"
				}

			}
, 			{
				"box" : 				{
					"bgcolor" : [ 0.290196, 0.309804, 0.301961, 0.0 ],
					"fontface" : 1,
					"fontname" : "Helvetica Neue",
					"htricolor" : [ 0.741176, 0.356863, 0.047059, 1.0 ],
					"id" : "obj-43",
					"maxclass" : "number",
					"numinlets" : 1,
					"numoutlets" : 2,
					"outlettype" : [ "", "bang" ],
					"parameter_enable" : 0,
					"patching_rect" : [ 14.0, 36.0, 50.0, 23.0 ],
					"presentation" : 1,
					"presentation_rect" : [ 41.0, 3.5, 50.0, 23.0 ],
					"style" : "",
					"textcolor" : [ 0.0, 0.0, 0.0, 1.0 ],
					"tricolor" : [ 0.317647, 0.654902, 0.976471, 1.0 ],
					"varname" : "Port"
				}

			}
, 			{
				"box" : 				{
					"id" : "obj-38",
					"maxclass" : "comment",
					"numinlets" : 1,
					"numoutlets" : 0,
					"patching_rect" : [ 918.142883, 155.0, 24.0, 20.0 ],
					"style" : "",
					"text" : "R"
				}

			}
, 			{
				"box" : 				{
					"id" : "obj-39",
					"maxclass" : "comment",
					"numinlets" : 1,
					"numoutlets" : 0,
					"patching_rect" : [ 760.142883, 155.0, 24.0, 20.0 ],
					"style" : "",
					"text" : "L"
				}

			}
, 			{
				"box" : 				{
					"bgcolor" : [ 0.113725, 0.580392, 0.737255, 1.0 ],
					"checkedcolor" : [ 1.0, 1.0, 1.0, 1.0 ],
					"id" : "obj-40",
					"ignoreclick" : 1,
					"maxclass" : "toggle",
					"numinlets" : 1,
					"numoutlets" : 1,
					"outlettype" : [ "int" ],
					"parameter_enable" : 0,
					"patching_rect" : [ 944.142883, 155.0, 18.0, 18.0 ],
					"presentation" : 1,
					"presentation_rect" : [ 488.0, 56.5, 18.0, 18.0 ],
					"prototypename" : "M4L.reversed",
					"style" : "",
					"uncheckedcolor" : [ 0.0, 0.0, 0.0, 0.0 ]
				}

			}
, 			{
				"box" : 				{
					"bgcolor" : [ 0.113725, 0.580392, 0.737255, 1.0 ],
					"checkedcolor" : [ 1.0, 1.0, 1.0, 1.0 ],
					"id" : "obj-41",
					"ignoreclick" : 1,
					"maxclass" : "toggle",
					"numinlets" : 1,
					"numoutlets" : 1,
					"outlettype" : [ "int" ],
					"parameter_enable" : 0,
					"patching_rect" : [ 786.142883, 155.0, 18.0, 18.0 ],
					"presentation" : 1,
					"presentation_rect" : [ 448.0, 56.5, 18.0, 18.0 ],
					"prototypename" : "M4L.reversed",
					"style" : "",
					"uncheckedcolor" : [ 0.0, 0.0, 0.0, 0.0 ]
				}

			}
, 			{
				"box" : 				{
					"id" : "obj-34",
					"maxclass" : "comment",
					"numinlets" : 1,
					"numoutlets" : 0,
					"patching_rect" : [ 602.0, 155.0, 24.0, 20.0 ],
					"style" : "",
					"text" : "D"
				}

			}
, 			{
				"box" : 				{
					"id" : "obj-35",
					"maxclass" : "comment",
					"numinlets" : 1,
					"numoutlets" : 0,
					"patching_rect" : [ 529.0, 155.0, 24.0, 20.0 ],
					"style" : "",
					"text" : "U"
				}

			}
, 			{
				"box" : 				{
					"bgcolor" : [ 0.113725, 0.580392, 0.737255, 1.0 ],
					"checkedcolor" : [ 1.0, 1.0, 1.0, 1.0 ],
					"id" : "obj-36",
					"ignoreclick" : 1,
					"maxclass" : "toggle",
					"numinlets" : 1,
					"numoutlets" : 1,
					"outlettype" : [ "int" ],
					"parameter_enable" : 0,
					"patching_rect" : [ 628.0, 155.0, 18.0, 18.0 ],
					"presentation" : 1,
					"presentation_rect" : [ 468.0, 76.5, 18.0, 18.0 ],
					"prototypename" : "M4L.reversed",
					"style" : "",
					"uncheckedcolor" : [ 0.0, 0.0, 0.0, 0.0 ]
				}

			}
, 			{
				"box" : 				{
					"bgcolor" : [ 0.113725, 0.580392, 0.737255, 1.0 ],
					"checkedcolor" : [ 1.0, 1.0, 1.0, 1.0 ],
					"id" : "obj-37",
					"ignoreclick" : 1,
					"maxclass" : "toggle",
					"numinlets" : 1,
					"numoutlets" : 1,
					"outlettype" : [ "int" ],
					"parameter_enable" : 0,
					"patching_rect" : [ 555.0, 155.0, 18.0, 18.0 ],
					"presentation" : 1,
					"presentation_rect" : [ 468.0, 37.5, 18.0, 18.0 ],
					"prototypename" : "M4L.reversed",
					"style" : "",
					"uncheckedcolor" : [ 0.0, 0.0, 0.0, 0.0 ]
				}

			}
, 			{
				"box" : 				{
					"id" : "obj-33",
					"maxclass" : "comment",
					"numinlets" : 1,
					"numoutlets" : 0,
					"patching_rect" : [ 462.0, 155.0, 24.0, 20.0 ],
					"presentation" : 1,
					"presentation_rect" : [ 468.0, 158.5, 24.0, 20.0 ],
					"style" : "",
					"text" : "B"
				}

			}
, 			{
				"box" : 				{
					"id" : "obj-32",
					"maxclass" : "comment",
					"numinlets" : 1,
					"numoutlets" : 0,
					"patching_rect" : [ 389.0, 155.0, 24.0, 20.0 ],
					"presentation" : 1,
					"presentation_rect" : [ 468.0, 111.0, 24.0, 20.0 ],
					"style" : "",
					"text" : "A"
				}

			}
, 			{
				"box" : 				{
					"bgcolor" : [ 0.113725, 0.580392, 0.737255, 1.0 ],
					"checkedcolor" : [ 1.0, 1.0, 1.0, 1.0 ],
					"id" : "obj-27",
					"ignoreclick" : 1,
					"maxclass" : "toggle",
					"numinlets" : 1,
					"numoutlets" : 1,
					"outlettype" : [ "int" ],
					"parameter_enable" : 0,
					"patching_rect" : [ 488.0, 155.0, 18.0, 18.0 ],
					"presentation" : 1,
					"presentation_rect" : [ 468.0, 175.5, 18.0, 18.0 ],
					"prototypename" : "M4L.reversed",
					"style" : "",
					"uncheckedcolor" : [ 0.0, 0.0, 0.0, 0.0 ]
				}

			}
, 			{
				"box" : 				{
					"bgcolor" : [ 0.113725, 0.580392, 0.737255, 1.0 ],
					"checkedcolor" : [ 1.0, 1.0, 1.0, 1.0 ],
					"id" : "obj-20",
					"ignoreclick" : 1,
					"maxclass" : "toggle",
					"numinlets" : 1,
					"numoutlets" : 1,
					"outlettype" : [ "int" ],
					"parameter_enable" : 0,
					"patching_rect" : [ 415.0, 155.0, 18.0, 18.0 ],
					"presentation" : 1,
					"presentation_rect" : [ 468.0, 128.5, 18.0, 18.0 ],
					"prototypename" : "M4L.reversed",
					"style" : "",
					"uncheckedcolor" : [ 0.0, 0.0, 0.0, 0.0 ]
				}

			}
, 			{
				"box" : 				{
					"id" : "obj-17",
					"maxclass" : "comment",
					"numinlets" : 1,
					"numoutlets" : 0,
					"patching_rect" : [ 225.5, 496.0, 41.0, 20.0 ],
					"presentation" : 1,
					"presentation_rect" : [ 218.5, 196.0, 41.0, 20.0 ],
					"style" : "",
					"text" : "accel"
				}

			}
, 			{
				"box" : 				{
					"id" : "obj-16",
					"maxclass" : "comment",
					"numinlets" : 1,
					"numoutlets" : 0,
					"patching_rect" : [ 155.5, 496.0, 41.0, 20.0 ],
					"presentation" : 1,
					"presentation_rect" : [ 158.5, 196.0, 41.0, 20.0 ],
					"style" : "",
					"text" : "yaw"
				}

			}
, 			{
				"box" : 				{
					"id" : "obj-15",
					"maxclass" : "comment",
					"numinlets" : 1,
					"numoutlets" : 0,
					"patching_rect" : [ 93.0, 496.0, 41.0, 20.0 ],
					"presentation" : 1,
					"presentation_rect" : [ 86.0, 196.0, 41.0, 20.0 ],
					"style" : "",
					"text" : "roll"
				}

			}
, 			{
				"box" : 				{
					"id" : "obj-14",
					"maxclass" : "comment",
					"numinlets" : 1,
					"numoutlets" : 0,
					"patching_rect" : [ 32.5, 496.0, 41.0, 20.0 ],
					"presentation" : 1,
					"presentation_rect" : [ 22.0, 196.0, 41.0, 20.0 ],
					"style" : "",
					"text" : "pitch"
				}

			}
, 			{
				"box" : 				{
					"annotation" : "",
					"bgcolor" : [ 1.0, 1.0, 1.0, 0.0 ],
					"fontface" : 1,
					"fontname" : "Arial",
					"fontsize" : 12.0,
					"format" : 6,
					"htricolor" : [ 1.0, 1.0, 0.0, 1.0 ],
					"id" : "obj-12",
					"ignoreclick" : 1,
					"maxclass" : "flonum",
					"numinlets" : 1,
					"numoutlets" : 2,
					"outlettype" : [ "", "bang" ],
					"parameter_enable" : 0,
					"patching_rect" : [ 198.5, 523.0, 50.0, 22.0 ],
					"presentation" : 1,
					"presentation_rect" : [ 209.5, 172.0, 50.0, 22.0 ],
					"prototypename" : "redtri",
					"style" : "",
					"textcolor" : [ 0.0, 0.0, 0.0, 1.0 ],
					"tricolor" : [ 0.501961, 0.0, 0.0, 0.0 ],
					"varname" : "pitch[3]"
				}

			}
, 			{
				"box" : 				{
					"annotation" : "",
					"bgcolor" : [ 1.0, 1.0, 1.0, 0.0 ],
					"fontface" : 1,
					"fontname" : "Arial",
					"fontsize" : 12.0,
					"format" : 6,
					"htricolor" : [ 1.0, 1.0, 0.0, 1.0 ],
					"id" : "obj-11",
					"ignoreclick" : 1,
					"maxclass" : "flonum",
					"numinlets" : 1,
					"numoutlets" : 2,
					"outlettype" : [ "", "bang" ],
					"parameter_enable" : 0,
					"patching_rect" : [ 137.0, 523.0, 50.0, 22.0 ],
					"presentation" : 1,
					"presentation_rect" : [ 151.0, 172.0, 50.0, 22.0 ],
					"prototypename" : "redtri",
					"style" : "",
					"textcolor" : [ 0.0, 0.0, 0.0, 1.0 ],
					"tricolor" : [ 0.501961, 0.0, 0.0, 0.0 ],
					"varname" : "pitch[2]"
				}

			}
, 			{
				"box" : 				{
					"annotation" : "",
					"bgcolor" : [ 1.0, 1.0, 1.0, 0.0 ],
					"fontface" : 1,
					"fontname" : "Arial",
					"fontsize" : 12.0,
					"format" : 6,
					"htricolor" : [ 1.0, 1.0, 0.0, 1.0 ],
					"id" : "obj-10",
					"ignoreclick" : 1,
					"maxclass" : "flonum",
					"numinlets" : 1,
					"numoutlets" : 2,
					"outlettype" : [ "", "bang" ],
					"parameter_enable" : 0,
					"patching_rect" : [ 75.5, 523.0, 50.0, 22.0 ],
					"presentation" : 1,
					"presentation_rect" : [ 79.5, 172.0, 50.0, 22.0 ],
					"prototypename" : "redtri",
					"style" : "",
					"textcolor" : [ 0.0, 0.0, 0.0, 1.0 ],
					"tricolor" : [ 0.501961, 0.0, 0.0, 0.0 ],
					"varname" : "pitch[1]"
				}

			}
, 			{
				"box" : 				{
					"annotation" : "",
					"bgcolor" : [ 1.0, 1.0, 1.0, 0.0 ],
					"fontface" : 1,
					"fontname" : "Arial",
					"fontsize" : 12.0,
					"format" : 6,
					"htricolor" : [ 1.0, 1.0, 0.0, 1.0 ],
					"id" : "obj-9",
					"ignoreclick" : 1,
					"maxclass" : "flonum",
					"numinlets" : 1,
					"numoutlets" : 2,
					"outlettype" : [ "", "bang" ],
					"parameter_enable" : 0,
					"patching_rect" : [ 14.0, 523.0, 50.0, 22.0 ],
					"presentation" : 1,
					"presentation_rect" : [ 14.0, 172.0, 50.0, 22.0 ],
					"prototypename" : "redtri",
					"style" : "",
					"textcolor" : [ 0.0, 0.0, 0.0, 1.0 ],
					"tricolor" : [ 0.501961, 0.0, 0.0, 0.0 ],
					"varname" : "pitch"
				}

			}
, 			{
				"box" : 				{
					"id" : "obj-7",
					"maxclass" : "newobj",
					"numinlets" : 1,
					"numoutlets" : 5,
					"outlettype" : [ "", "", "", "", "" ],
					"patching_rect" : [ 14.0, 440.0, 265.0, 22.0 ],
					"style" : "",
					"text" : "unjoin 4"
				}

			}
, 			{
				"box" : 				{
					"bgcolor" : [ 0.290196, 0.309804, 0.301961, 0.0 ],
					"candycane" : 13,
					"contdata" : 1,
					"ghostbar" : 49,
					"id" : "obj-6",
					"maxclass" : "multislider",
					"numinlets" : 1,
					"numoutlets" : 2,
					"outlettype" : [ "", "" ],
					"parameter_enable" : 0,
					"patching_rect" : [ 14.0, 303.0, 265.0, 125.0 ],
					"presentation" : 1,
					"presentation_rect" : [ 8.0, 42.0, 265.0, 125.0 ],
					"setminmax" : [ 0.0, 1.0 ],
					"size" : 4,
					"slidercolor" : [ 0.952941, 0.564706, 0.098039, 1.0 ],
					"spacing" : 8,
					"style" : ""
				}

			}
, 			{
				"box" : 				{
					"id" : "obj-4",
					"maxclass" : "newobj",
					"numinlets" : 9,
					"numoutlets" : 9,
					"outlettype" : [ "", "", "", "", "", "", "", "", "" ],
					"patching_rect" : [ 14.0, 100.0, 1224.0, 22.0 ],
					"style" : "",
					"text" : "route /wii/2/accel/pry /wii/2/motion/angles /wii/2/button/A /wii/2/button/B /wii/2/button/Up /wii/2/button/Down /wii/2/button/Left /wii/2/button/Right"
				}

			}
, 			{
				"box" : 				{
					"id" : "obj-1",
					"maxclass" : "newobj",
					"numinlets" : 1,
					"numoutlets" : 1,
					"outlettype" : [ "" ],
					"patching_rect" : [ 14.0, 67.0, 99.0, 22.0 ],
					"style" : "",
					"text" : "udpreceive 9000"
				}

			}
 ],
		"lines" : [ 			{
				"patchline" : 				{
					"destination" : [ "obj-4", 0 ],
					"source" : [ "obj-1", 0 ]
				}

			}
, 			{
				"patchline" : 				{
					"destination" : [ "obj-48", 0 ],
					"source" : [ "obj-10", 0 ]
				}

			}
, 			{
				"patchline" : 				{
					"destination" : [ "obj-49", 0 ],
					"source" : [ "obj-11", 0 ]
				}

			}
, 			{
				"patchline" : 				{
					"destination" : [ "obj-50", 0 ],
					"source" : [ "obj-12", 0 ]
				}

			}
, 			{
				"patchline" : 				{
					"destination" : [ "obj-51", 0 ],
					"source" : [ "obj-20", 0 ]
				}

			}
, 			{
				"patchline" : 				{
					"destination" : [ "obj-21", 0 ],
					"source" : [ "obj-24", 2 ]
				}

			}
, 			{
				"patchline" : 				{
					"destination" : [ "obj-22", 0 ],
					"source" : [ "obj-24", 1 ]
				}

			}
, 			{
				"patchline" : 				{
					"destination" : [ "obj-23", 0 ],
					"source" : [ "obj-24", 0 ]
				}

			}
, 			{
				"patchline" : 				{
					"destination" : [ "obj-26", 1 ],
					"midpoints" : [ 53.0, 156.0, 53.0, 156.0 ],
					"source" : [ "obj-25", 0 ]
				}

			}
, 			{
				"patchline" : 				{
					"destination" : [ "obj-28", 3 ],
					"source" : [ "obj-25", 1 ]
				}

			}
, 			{
				"patchline" : 				{
					"destination" : [ "obj-28", 0 ],
					"source" : [ "obj-26", 0 ]
				}

			}
, 			{
				"patchline" : 				{
					"destination" : [ "obj-52", 0 ],
					"source" : [ "obj-27", 0 ]
				}

			}
, 			{
				"patchline" : 				{
					"destination" : [ "obj-6", 0 ],
					"source" : [ "obj-28", 0 ]
				}

			}
, 			{
				"patchline" : 				{
					"destination" : [ "obj-42", 0 ],
					"source" : [ "obj-31", 0 ]
				}

			}
, 			{
				"patchline" : 				{
					"destination" : [ "obj-54", 0 ],
					"source" : [ "obj-36", 0 ]
				}

			}
, 			{
				"patchline" : 				{
					"destination" : [ "obj-53", 0 ],
					"source" : [ "obj-37", 0 ]
				}

			}
, 			{
				"patchline" : 				{
					"destination" : [ "obj-20", 0 ],
					"source" : [ "obj-4", 2 ]
				}

			}
, 			{
				"patchline" : 				{
					"destination" : [ "obj-25", 0 ],
					"source" : [ "obj-4", 0 ]
				}

			}
, 			{
				"patchline" : 				{
					"destination" : [ "obj-26", 2 ],
					"midpoints" : [ 174.125, 171.0, 70.5, 171.0 ],
					"source" : [ "obj-4", 1 ]
				}

			}
, 			{
				"patchline" : 				{
					"destination" : [ "obj-27", 0 ],
					"source" : [ "obj-4", 3 ]
				}

			}
, 			{
				"patchline" : 				{
					"destination" : [ "obj-36", 0 ],
					"source" : [ "obj-4", 5 ]
				}

			}
, 			{
				"patchline" : 				{
					"destination" : [ "obj-37", 0 ],
					"source" : [ "obj-4", 4 ]
				}

			}
, 			{
				"patchline" : 				{
					"destination" : [ "obj-40", 0 ],
					"source" : [ "obj-4", 7 ]
				}

			}
, 			{
				"patchline" : 				{
					"destination" : [ "obj-41", 0 ],
					"source" : [ "obj-4", 6 ]
				}

			}
, 			{
				"patchline" : 				{
					"destination" : [ "obj-5", 0 ],
					"midpoints" : [ 1228.5, 252.0, 312.571411, 252.0 ],
					"source" : [ "obj-4", 8 ]
				}

			}
, 			{
				"patchline" : 				{
					"destination" : [ "obj-56", 0 ],
					"source" : [ "obj-40", 0 ]
				}

			}
, 			{
				"patchline" : 				{
					"destination" : [ "obj-55", 0 ],
					"source" : [ "obj-41", 0 ]
				}

			}
, 			{
				"patchline" : 				{
					"destination" : [ "obj-26", 0 ],
					"source" : [ "obj-42", 0 ]
				}

			}
, 			{
				"patchline" : 				{
					"destination" : [ "obj-1", 0 ],
					"source" : [ "obj-43", 0 ]
				}

			}
, 			{
				"patchline" : 				{
					"destination" : [ "obj-43", 0 ],
					"source" : [ "obj-46", 0 ]
				}

			}
, 			{
				"patchline" : 				{
					"destination" : [ "obj-8", 0 ],
					"source" : [ "obj-5", 0 ]
				}

			}
, 			{
				"patchline" : 				{
					"destination" : [ "obj-43", 0 ],
					"source" : [ "obj-57", 0 ]
				}

			}
, 			{
				"patchline" : 				{
					"destination" : [ "obj-7", 0 ],
					"source" : [ "obj-6", 0 ]
				}

			}
, 			{
				"patchline" : 				{
					"destination" : [ "obj-61", 0 ],
					"source" : [ "obj-63", 0 ]
				}

			}
, 			{
				"patchline" : 				{
					"destination" : [ "obj-66", 0 ],
					"source" : [ "obj-65", 0 ]
				}

			}
, 			{
				"patchline" : 				{
					"destination" : [ "obj-63", 0 ],
					"source" : [ "obj-66", 0 ]
				}

			}
, 			{
				"patchline" : 				{
					"destination" : [ "obj-10", 0 ],
					"source" : [ "obj-7", 1 ]
				}

			}
, 			{
				"patchline" : 				{
					"destination" : [ "obj-11", 0 ],
					"source" : [ "obj-7", 2 ]
				}

			}
, 			{
				"patchline" : 				{
					"destination" : [ "obj-12", 0 ],
					"source" : [ "obj-7", 3 ]
				}

			}
, 			{
				"patchline" : 				{
					"destination" : [ "obj-9", 0 ],
					"source" : [ "obj-7", 0 ]
				}

			}
, 			{
				"patchline" : 				{
					"destination" : [ "obj-24", 0 ],
					"order" : 0,
					"source" : [ "obj-8", 0 ]
				}

			}
, 			{
				"patchline" : 				{
					"destination" : [ "obj-67", 0 ],
					"order" : 1,
					"source" : [ "obj-8", 0 ]
				}

			}
, 			{
				"patchline" : 				{
					"destination" : [ "obj-47", 0 ],
					"source" : [ "obj-9", 0 ]
				}

			}
 ],
		"bgfillcolor_type" : "gradient",
		"bgfillcolor_color1" : [ 0.376471, 0.384314, 0.4, 1.0 ],
		"bgfillcolor_color2" : [ 0.290196, 0.309804, 0.301961, 1.0 ],
		"bgfillcolor_color" : [ 0.290196, 0.309804, 0.301961, 1.0 ],
		"bgfillcolor_angle" : 270.0,
		"bgfillcolor_proportion" : 0.39
	}

}
